<?xml version="1.0" standalone="no"?>
<!DOCTYPE svg PUBLIC "-//W3C//DTD SVG 20010904//EN"
 "http://www.w3.org/TR/2001/REC-SVG-20010904/DTD/svg10.dtd">
<svg version="1.0" xmlns="http://www.w3.org/2000/svg"
 width="260.000000pt" height="260.000000pt" viewBox="0 0 260.000000 260.000000"
 preserveAspectRatio="xMidYMid meet">
<metadata>
Created by potrace 1.14, written by Peter Selinger 2001-2017
</metadata>
<g transform="translate(0.000000,260.000000) scale(0.100000,-0.100000)"
fill="#000000" stroke="none">
<path d="M1860 2340 c-61 -12 -93 -36 -223 -167 l-126 -128 257 -258 c141
-141 260 -256 264 -255 4 2 61 54 127 115 131 124 161 170 166 255 5 93 -19
137 -157 276 -68 68 -139 131 -158 141 -43 22 -103 31 -150 21z"/>
<path d="M1270 1919 c-52 -16 -124 -39 -160 -50 -36 -11 -92 -28 -125 -39 -33
-10 -100 -31 -150 -46 -49 -15 -106 -35 -125 -44 -19 -10 -38 -17 -42 -16 -13
2 -88 -108 -100 -146 -6 -21 -14 -38 -17 -38 -3 0 -7 -12 -8 -26 0 -15 -5 -29
-10 -33 -4 -3 -8 -13 -9 -21 -2 -26 -78 -249 -83 -245 -4 2 -7 -10 -7 -27 -1
-17 -5 -33 -10 -37 -5 -3 -9 -11 -9 -16 0 -29 -50 -163 -58 -158 -6 3 -7 1 -3
-6 7 -11 -50 -200 -63 -211 -3 -3 -6 -9 -6 -15 -1 -32 -18 -74 -27 -69 -7 4
-8 2 -4 -4 8 -14 -14 -92 -26 -92 -5 0 -7 -4 -4 -9 5 -7 -9 -59 -31 -121 -8
-22 -10 -60 -2 -60 3 0 11 -12 18 -27 12 -27 12 -27 336 297 269 269 322 327
314 341 -5 10 -9 41 -9 69 0 168 186 261 331 165 41 -26 84 -104 76 -135 -3
-11 -1 -18 4 -14 23 14 -8 -100 -40 -144 -22 -32 -86 -67 -134 -76 -16 -3 -50
-1 -75 4 l-47 9 -138 -137 c-76 -75 -219 -221 -318 -324 -170 -176 -179 -187
-159 -198 12 -6 33 -14 47 -16 37 -7 1191 380 1241 416 66 47 91 96 140 270 6
19 39 129 75 245 36 116 68 225 72 244 7 33 4 36 -261 302 -148 148 -275 269
-284 268 -8 0 -58 -14 -110 -30z"/>
</g>
</svg>
