<?xml version="1.0" encoding="UTF-8" standalone="no"?>
<svg
   version="1.1"
   id="Layer_1"
   x="0px"
   y="0px"
   width="100%"
   viewBox="0 0 260 260"
   enable-background="new 0 0 260 260"
   xml:space="preserve"
   sodipodi:docname="icon.svg"
   inkscape:version="1.2.1 (9c6d41e410, 2022-07-14)"
   xmlns:inkscape="http://www.inkscape.org/namespaces/inkscape"
   xmlns:sodipodi="http://sodipodi.sourceforge.net/DTD/sodipodi-0.dtd"
   xmlns="http://www.w3.org/2000/svg"
   xmlns:svg="http://www.w3.org/2000/svg"><defs
   id="defs15" /><sodipodi:namedview
   id="namedview13"
   pagecolor="#ffffff"
   bordercolor="#000000"
   borderopacity="0.25"
   inkscape:showpageshadow="2"
   inkscape:pageopacity="0.0"
   inkscape:pagecheckerboard="0"
   inkscape:deskcolor="#d1d1d1"
   showgrid="false"
   inkscape:zoom="3.0923077"
   inkscape:cx="130"
   inkscape:cy="130.16169"
   inkscape:window-width="1920"
   inkscape:window-height="991"
   inkscape:window-x="-9"
   inkscape:window-y="-9"
   inkscape:window-maximized="1"
   inkscape:current-layer="Layer_1" />

<path
   fill="#0D6EFC"
   opacity="1.000000"
   stroke="none"
   d=" M167.146027,92.159439   C174.457031,99.352394 181.428482,106.940804 189.192047,113.606667   C194.871704,118.483276 194.360382,123.762886 192.509644,129.662689   C186.556046,148.641541 180.436691,167.568817 174.566528,186.573212   C171.979218,194.949509 166.072876,200.222961 158.354874,202.852753   C121.396072,215.445770 84.294243,227.618759 47.255920,239.979004   C42.593075,241.535065 38.187740,241.718323 33.678329,238.096115   C34.776516,236.580475 35.702976,234.834564 37.053497,233.526489   C40.933025,229.768951 45.096554,226.301987 48.931061,222.501465   C51.836449,219.621826 54.341579,216.343185 57.142349,213.352158   C63.182831,206.901337 69.233368,200.457382 75.402107,194.129883   C81.882011,187.483215 88.440262,180.908615 95.136368,174.481827   C96.112915,173.544571 98.294975,172.893845 99.495186,173.316025   C107.448662,176.113663 114.457314,173.387741 120.685432,169.138763   C123.099327,167.491928 123.690544,163.258942 125.272346,160.289459   C128.766235,153.730469 125.930069,148.279892 122.515892,142.820282   C121.982986,141.968124 122.163643,140.669724 122.112000,139.003448   C136.065033,124.591217 149.939682,110.772385 163.745316,96.884941   C165.096329,95.525925 166.022598,93.744698 167.146027,92.159439  z"
   id="path4" />
<path
   fill="#31D1F2"
   opacity="1.000000"
   stroke="none"
   d=" M166.954559,91.859833   C166.022598,93.744698 165.096329,95.525925 163.745316,96.884941   C149.939682,110.772385 136.065033,124.591217 122.024506,138.713623   C118.236191,137.649872 114.729103,135.882019 111.012115,135.031097   C99.149048,132.315353 91.068245,136.144638 87.339149,147.363174   C85.804947,151.978622 87.085075,157.529587 87.085075,163.459686   C68.264603,182.266495 48.714142,201.798920 29.171558,221.339233   C27.765776,222.744843 26.484282,224.280502 25.024080,225.624283   C23.515274,227.012802 23.029205,227.812805 21.197979,224.913818   C16.480152,217.445129 20.844481,211.314499 22.840755,204.926239   C25.434107,196.627274 29.023245,188.644058 31.765556,180.386047   C36.555756,165.961166 40.953491,151.406464 45.654480,136.951294   C49.565197,124.926163 53.037766,112.699173 57.905231,101.063934   C61.578663,92.282936 68.890846,86.633728 78.420563,83.885376   C94.287491,79.309402 110.016403,74.255180 125.806931,69.413757   C129.279037,68.349205 132.711502,66.954872 136.267349,66.443695   C138.213821,66.163864 140.956818,66.788445 142.352631,68.076149   C150.649612,75.730568 158.657837,83.697975 166.954559,91.859833  z"
   id="path6" />
<path
   fill="#31D1F2"
   opacity="1.000000"
   stroke="none"
   d=" M178.846832,83.328667   C169.861328,74.279068 160.875809,65.229469 152.463348,56.757004   C158.960617,49.449181 165.519516,41.389351 172.827682,34.078499   C178.211212,28.692972 184.965546,25.520576 193.088776,26.271296   C199.537277,26.867247 204.684479,29.543844 208.943878,34.372795   C211.684418,37.479797 214.774673,40.278305 217.551788,43.693172   C205.180756,56.279720 192.957336,68.379349 180.771790,80.517006   C179.981094,81.304596 179.481720,82.384659 178.846832,83.328667  z"
   id="path8" />
<path
   fill="#0D6EFD"
   opacity="1.000000"
   stroke="none"
   d=" M178.880524,83.664780   C179.481720,82.384659 179.981094,81.304596 180.771790,80.517006   C192.957336,68.379349 205.180756,56.279720 217.683365,43.990425   C229.396194,52.213001 238.038177,62.442863 232.317963,77.962158   C230.315628,83.394592 225.782791,88.076019 221.781357,92.541023   C217.395950,97.434486 212.355118,101.754974 207.448166,106.155968   C206.305923,107.180450 204.550079,107.520828 202.809769,108.294601   C194.776291,100.127274 186.845245,92.064087 178.880524,83.664780  z"
   id="path10" />
</svg>
